<svg xmlns="http://www.w3.org/2000/svg" viewBox="0 0 100 100">
  <!-- Oscar Travel — OT monogram (path-drawn) -->
  <circle cx="50" cy="50" r="48" fill="#181d24"/>
  <g transform="translate(8 12) scale(0.84)">
    <circle cx="50" cy="44" r="38" fill="none" stroke="#C6A15B" stroke-width="2"/>
    <g fill="#C6A15B">
      <path fill-rule="evenodd" d="M21 46 a20 26 0 1 0 40 0 a20 26 0 1 0 -40 0 Z M28 46 a13 22.4 0 1 0 26 0 a13 22.4 0 1 0 -26 0 Z"/>
      <rect x="45" y="30" width="37" height="3.2"/>
      <rect x="45" y="30" width="2.6" height="9.4"/>
      <rect x="79.4" y="30" width="2.6" height="9.4"/>
      <rect x="60" y="30" width="6.4" height="54.5"/>
      <path d="M55.4 87.8 h15.6 v-3.3 h-4.6 v-1.6 h-6.4 v1.6 h-4.6 Z"/>
    </g>
  </g>
</svg>
